<mxfile host="Electron" agent="Mozilla/5.0 (X11; Linux x86_64) AppleWebKit/537.36 (KHTML, like Gecko) draw.io/24.7.17 Chrome/130.0.6723.59 Electron/33.0.2 Safari/537.36" version="24.7.17" pages="4">
  <diagram name="uc-001" id="2YBvvXClWsGukQMizWep">
    <mxGraphModel dx="1639" dy="1679" grid="1" gridSize="10" guides="1" tooltips="1" connect="1" arrows="1" fold="1" page="1" pageScale="1" pageWidth="850" pageHeight="1100" math="0" shadow="0">
      <root>
        <mxCell id="0" />
        <mxCell id="1" parent="0" />
        <mxCell id="aM9ryv3xv72pqoxQDRHE-1" value="Frontend" style="shape=umlLifeline;perimeter=lifelinePerimeter;whiteSpace=wrap;html=1;container=0;dropTarget=0;collapsible=0;recursiveResize=0;outlineConnect=0;portConstraint=eastwest;newEdgeStyle={&quot;edgeStyle&quot;:&quot;elbowEdgeStyle&quot;,&quot;elbow&quot;:&quot;vertical&quot;,&quot;curved&quot;:0,&quot;rounded&quot;:0};" parent="1" vertex="1">
          <mxGeometry x="30" y="40" width="100" height="320" as="geometry" />
        </mxCell>
        <mxCell id="aM9ryv3xv72pqoxQDRHE-2" value="" style="html=1;points=[];perimeter=orthogonalPerimeter;outlineConnect=0;targetShapes=umlLifeline;portConstraint=eastwest;newEdgeStyle={&quot;edgeStyle&quot;:&quot;elbowEdgeStyle&quot;,&quot;elbow&quot;:&quot;vertical&quot;,&quot;curved&quot;:0,&quot;rounded&quot;:0};" parent="aM9ryv3xv72pqoxQDRHE-1" vertex="1">
          <mxGeometry x="45" y="70" width="10" height="220" as="geometry" />
        </mxCell>
        <mxCell id="aM9ryv3xv72pqoxQDRHE-5" value="Backend" style="shape=umlLifeline;perimeter=lifelinePerimeter;whiteSpace=wrap;html=1;container=0;dropTarget=0;collapsible=0;recursiveResize=0;outlineConnect=0;portConstraint=eastwest;newEdgeStyle={&quot;edgeStyle&quot;:&quot;elbowEdgeStyle&quot;,&quot;elbow&quot;:&quot;vertical&quot;,&quot;curved&quot;:0,&quot;rounded&quot;:0};" parent="1" vertex="1">
          <mxGeometry x="230" y="40" width="100" height="320" as="geometry" />
        </mxCell>
        <mxCell id="aM9ryv3xv72pqoxQDRHE-6" value="" style="html=1;points=[];perimeter=orthogonalPerimeter;outlineConnect=0;targetShapes=umlLifeline;portConstraint=eastwest;newEdgeStyle={&quot;edgeStyle&quot;:&quot;elbowEdgeStyle&quot;,&quot;elbow&quot;:&quot;vertical&quot;,&quot;curved&quot;:0,&quot;rounded&quot;:0};" parent="aM9ryv3xv72pqoxQDRHE-5" vertex="1">
          <mxGeometry x="45" y="80" width="10" height="210" as="geometry" />
        </mxCell>
        <mxCell id="aM9ryv3xv72pqoxQDRHE-7" value="Initiate Registration" style="html=1;verticalAlign=bottom;endArrow=block;edgeStyle=elbowEdgeStyle;elbow=vertical;curved=0;rounded=0;" parent="1" target="aM9ryv3xv72pqoxQDRHE-2" edge="1">
          <mxGeometry relative="1" as="geometry">
            <mxPoint x="-120" y="120" as="sourcePoint" />
            <Array as="points">
              <mxPoint x="-35" y="120" />
            </Array>
            <mxPoint x="54.49999999999977" y="120" as="targetPoint" />
          </mxGeometry>
        </mxCell>
        <mxCell id="pxPUnd_f1WkB2Pm4VXBw-4" value="Guest" style="shape=umlLifeline;perimeter=lifelinePerimeter;whiteSpace=wrap;html=1;container=0;dropTarget=0;collapsible=0;recursiveResize=0;outlineConnect=0;portConstraint=eastwest;newEdgeStyle={&quot;edgeStyle&quot;:&quot;elbowEdgeStyle&quot;,&quot;elbow&quot;:&quot;vertical&quot;,&quot;curved&quot;:0,&quot;rounded&quot;:0};" vertex="1" parent="1">
          <mxGeometry x="-170" y="40" width="100" height="320" as="geometry" />
        </mxCell>
        <mxCell id="pxPUnd_f1WkB2Pm4VXBw-5" value="" style="html=1;points=[];perimeter=orthogonalPerimeter;outlineConnect=0;targetShapes=umlLifeline;portConstraint=eastwest;newEdgeStyle={&quot;edgeStyle&quot;:&quot;elbowEdgeStyle&quot;,&quot;elbow&quot;:&quot;vertical&quot;,&quot;curved&quot;:0,&quot;rounded&quot;:0};" vertex="1" parent="pxPUnd_f1WkB2Pm4VXBw-4">
          <mxGeometry x="45" y="70" width="10" height="220" as="geometry" />
        </mxCell>
        <mxCell id="pxPUnd_f1WkB2Pm4VXBw-7" value="" style="shape=umlActor;verticalLabelPosition=bottom;verticalAlign=top;html=1;outlineConnect=0;" vertex="1" parent="1">
          <mxGeometry x="-135" y="-40" width="30" height="60" as="geometry" />
        </mxCell>
        <mxCell id="pxPUnd_f1WkB2Pm4VXBw-9" value="Display Form" style="html=1;verticalAlign=bottom;endArrow=block;edgeStyle=elbowEdgeStyle;elbow=vertical;curved=0;rounded=0;" edge="1" parent="1" source="aM9ryv3xv72pqoxQDRHE-2" target="pxPUnd_f1WkB2Pm4VXBw-5">
          <mxGeometry relative="1" as="geometry">
            <mxPoint x="70" y="160" as="sourcePoint" />
            <Array as="points">
              <mxPoint x="-15" y="160" />
            </Array>
            <mxPoint x="-120" y="160" as="targetPoint" />
          </mxGeometry>
        </mxCell>
        <mxCell id="pxPUnd_f1WkB2Pm4VXBw-10" value="Submit Form" style="html=1;verticalAlign=bottom;endArrow=block;edgeStyle=elbowEdgeStyle;elbow=vertical;curved=0;rounded=0;" edge="1" parent="1" source="pxPUnd_f1WkB2Pm4VXBw-5">
          <mxGeometry relative="1" as="geometry">
            <mxPoint x="-120" y="200" as="sourcePoint" />
            <Array as="points">
              <mxPoint x="-35" y="200" />
            </Array>
            <mxPoint x="75" y="200" as="targetPoint" />
          </mxGeometry>
        </mxCell>
        <mxCell id="pxPUnd_f1WkB2Pm4VXBw-11" value="Create Account" style="html=1;verticalAlign=bottom;endArrow=block;edgeStyle=elbowEdgeStyle;elbow=vertical;curved=0;rounded=0;" edge="1" parent="1" source="aM9ryv3xv72pqoxQDRHE-2" target="aM9ryv3xv72pqoxQDRHE-6">
          <mxGeometry relative="1" as="geometry">
            <mxPoint x="80" y="240" as="sourcePoint" />
            <Array as="points">
              <mxPoint x="160" y="240" />
            </Array>
            <mxPoint x="270" y="240" as="targetPoint" />
          </mxGeometry>
        </mxCell>
        <mxCell id="pxPUnd_f1WkB2Pm4VXBw-13" value="Return Success Message" style="html=1;verticalAlign=bottom;endArrow=block;edgeStyle=elbowEdgeStyle;elbow=vertical;curved=0;rounded=0;" edge="1" parent="1" source="aM9ryv3xv72pqoxQDRHE-6" target="aM9ryv3xv72pqoxQDRHE-2">
          <mxGeometry relative="1" as="geometry">
            <mxPoint x="260" y="280" as="sourcePoint" />
            <Array as="points">
              <mxPoint x="170" y="280" />
            </Array>
            <mxPoint x="70" y="280" as="targetPoint" />
          </mxGeometry>
        </mxCell>
        <mxCell id="pxPUnd_f1WkB2Pm4VXBw-14" value="Prompt for Sign in" style="html=1;verticalAlign=bottom;endArrow=block;edgeStyle=elbowEdgeStyle;elbow=vertical;curved=0;rounded=0;" edge="1" parent="1">
          <mxGeometry relative="1" as="geometry">
            <mxPoint x="75" y="320" as="sourcePoint" />
            <Array as="points">
              <mxPoint x="-30" y="320" />
            </Array>
            <mxPoint x="-115" y="320" as="targetPoint" />
          </mxGeometry>
        </mxCell>
      </root>
    </mxGraphModel>
  </diagram>
  <diagram name="uc-002" id="uyeRFPTbRNvUZtMRVXBm">
    <mxGraphModel dx="1796" dy="1795" grid="1" gridSize="10" guides="1" tooltips="1" connect="1" arrows="1" fold="1" page="1" pageScale="1" pageWidth="850" pageHeight="1100" math="0" shadow="0">
      <root>
        <mxCell id="ICZWEOEd3WsSAfwGdJ1y-0" />
        <mxCell id="ICZWEOEd3WsSAfwGdJ1y-1" parent="ICZWEOEd3WsSAfwGdJ1y-0" />
        <mxCell id="ICZWEOEd3WsSAfwGdJ1y-2" value="Frontend" style="shape=umlLifeline;perimeter=lifelinePerimeter;whiteSpace=wrap;html=1;container=0;dropTarget=0;collapsible=0;recursiveResize=0;outlineConnect=0;portConstraint=eastwest;newEdgeStyle={&quot;edgeStyle&quot;:&quot;elbowEdgeStyle&quot;,&quot;elbow&quot;:&quot;vertical&quot;,&quot;curved&quot;:0,&quot;rounded&quot;:0};" vertex="1" parent="ICZWEOEd3WsSAfwGdJ1y-1">
          <mxGeometry x="30" y="40" width="100" height="320" as="geometry" />
        </mxCell>
        <mxCell id="ICZWEOEd3WsSAfwGdJ1y-3" value="" style="html=1;points=[];perimeter=orthogonalPerimeter;outlineConnect=0;targetShapes=umlLifeline;portConstraint=eastwest;newEdgeStyle={&quot;edgeStyle&quot;:&quot;elbowEdgeStyle&quot;,&quot;elbow&quot;:&quot;vertical&quot;,&quot;curved&quot;:0,&quot;rounded&quot;:0};" vertex="1" parent="ICZWEOEd3WsSAfwGdJ1y-2">
          <mxGeometry x="45" y="70" width="10" height="220" as="geometry" />
        </mxCell>
        <mxCell id="ICZWEOEd3WsSAfwGdJ1y-4" value="Backend" style="shape=umlLifeline;perimeter=lifelinePerimeter;whiteSpace=wrap;html=1;container=0;dropTarget=0;collapsible=0;recursiveResize=0;outlineConnect=0;portConstraint=eastwest;newEdgeStyle={&quot;edgeStyle&quot;:&quot;elbowEdgeStyle&quot;,&quot;elbow&quot;:&quot;vertical&quot;,&quot;curved&quot;:0,&quot;rounded&quot;:0};" vertex="1" parent="ICZWEOEd3WsSAfwGdJ1y-1">
          <mxGeometry x="230" y="40" width="100" height="320" as="geometry" />
        </mxCell>
        <mxCell id="ICZWEOEd3WsSAfwGdJ1y-5" value="" style="html=1;points=[];perimeter=orthogonalPerimeter;outlineConnect=0;targetShapes=umlLifeline;portConstraint=eastwest;newEdgeStyle={&quot;edgeStyle&quot;:&quot;elbowEdgeStyle&quot;,&quot;elbow&quot;:&quot;vertical&quot;,&quot;curved&quot;:0,&quot;rounded&quot;:0};" vertex="1" parent="ICZWEOEd3WsSAfwGdJ1y-4">
          <mxGeometry x="45" y="80" width="10" height="210" as="geometry" />
        </mxCell>
        <mxCell id="ICZWEOEd3WsSAfwGdJ1y-6" value="Initiate Search" style="html=1;verticalAlign=bottom;endArrow=block;edgeStyle=elbowEdgeStyle;elbow=horizontal;curved=0;rounded=0;" edge="1" parent="ICZWEOEd3WsSAfwGdJ1y-1" target="ICZWEOEd3WsSAfwGdJ1y-3">
          <mxGeometry relative="1" as="geometry">
            <mxPoint x="-120" y="120" as="sourcePoint" />
            <Array as="points">
              <mxPoint x="-35" y="120" />
            </Array>
            <mxPoint x="54.49999999999977" y="120" as="targetPoint" />
          </mxGeometry>
        </mxCell>
        <mxCell id="ICZWEOEd3WsSAfwGdJ1y-7" value="Library Member" style="shape=umlLifeline;perimeter=lifelinePerimeter;whiteSpace=wrap;html=1;container=0;dropTarget=0;collapsible=0;recursiveResize=0;outlineConnect=0;portConstraint=eastwest;newEdgeStyle={&quot;edgeStyle&quot;:&quot;elbowEdgeStyle&quot;,&quot;elbow&quot;:&quot;vertical&quot;,&quot;curved&quot;:0,&quot;rounded&quot;:0};" vertex="1" parent="ICZWEOEd3WsSAfwGdJ1y-1">
          <mxGeometry x="-170" y="40" width="100" height="320" as="geometry" />
        </mxCell>
        <mxCell id="ICZWEOEd3WsSAfwGdJ1y-8" value="" style="html=1;points=[];perimeter=orthogonalPerimeter;outlineConnect=0;targetShapes=umlLifeline;portConstraint=eastwest;newEdgeStyle={&quot;edgeStyle&quot;:&quot;elbowEdgeStyle&quot;,&quot;elbow&quot;:&quot;vertical&quot;,&quot;curved&quot;:0,&quot;rounded&quot;:0};" vertex="1" parent="ICZWEOEd3WsSAfwGdJ1y-7">
          <mxGeometry x="45" y="70" width="10" height="220" as="geometry" />
        </mxCell>
        <mxCell id="ICZWEOEd3WsSAfwGdJ1y-9" value="" style="shape=umlActor;verticalLabelPosition=bottom;verticalAlign=top;html=1;outlineConnect=0;" vertex="1" parent="ICZWEOEd3WsSAfwGdJ1y-1">
          <mxGeometry x="-135" y="-40" width="30" height="60" as="geometry" />
        </mxCell>
        <mxCell id="ICZWEOEd3WsSAfwGdJ1y-10" value="Display Searchbar" style="html=1;verticalAlign=bottom;endArrow=block;edgeStyle=elbowEdgeStyle;elbow=vertical;curved=0;rounded=0;" edge="1" parent="ICZWEOEd3WsSAfwGdJ1y-1" source="ICZWEOEd3WsSAfwGdJ1y-3" target="ICZWEOEd3WsSAfwGdJ1y-8">
          <mxGeometry relative="1" as="geometry">
            <mxPoint x="70" y="160" as="sourcePoint" />
            <Array as="points">
              <mxPoint x="-15" y="160" />
            </Array>
            <mxPoint x="-120" y="160" as="targetPoint" />
          </mxGeometry>
        </mxCell>
        <mxCell id="ICZWEOEd3WsSAfwGdJ1y-11" value="Submit Search Query" style="html=1;verticalAlign=bottom;endArrow=block;edgeStyle=elbowEdgeStyle;elbow=vertical;curved=0;rounded=0;" edge="1" parent="ICZWEOEd3WsSAfwGdJ1y-1" source="ICZWEOEd3WsSAfwGdJ1y-8">
          <mxGeometry relative="1" as="geometry">
            <mxPoint x="-120" y="200" as="sourcePoint" />
            <Array as="points">
              <mxPoint x="-35" y="200" />
            </Array>
            <mxPoint x="75" y="200" as="targetPoint" />
          </mxGeometry>
        </mxCell>
        <mxCell id="ICZWEOEd3WsSAfwGdJ1y-12" value="Query Items" style="html=1;verticalAlign=bottom;endArrow=block;edgeStyle=elbowEdgeStyle;elbow=vertical;curved=0;rounded=0;" edge="1" parent="ICZWEOEd3WsSAfwGdJ1y-1" source="ICZWEOEd3WsSAfwGdJ1y-3" target="ICZWEOEd3WsSAfwGdJ1y-5">
          <mxGeometry relative="1" as="geometry">
            <mxPoint x="80" y="240" as="sourcePoint" />
            <Array as="points">
              <mxPoint x="160" y="240" />
            </Array>
            <mxPoint x="270" y="240" as="targetPoint" />
          </mxGeometry>
        </mxCell>
        <mxCell id="ICZWEOEd3WsSAfwGdJ1y-13" value="Return Items" style="html=1;verticalAlign=bottom;endArrow=block;edgeStyle=elbowEdgeStyle;elbow=horizontal;curved=0;rounded=0;" edge="1" parent="ICZWEOEd3WsSAfwGdJ1y-1" source="ICZWEOEd3WsSAfwGdJ1y-5" target="ICZWEOEd3WsSAfwGdJ1y-3">
          <mxGeometry relative="1" as="geometry">
            <mxPoint x="260" y="280" as="sourcePoint" />
            <Array as="points">
              <mxPoint x="170" y="280" />
            </Array>
            <mxPoint x="70" y="280" as="targetPoint" />
          </mxGeometry>
        </mxCell>
        <mxCell id="ICZWEOEd3WsSAfwGdJ1y-14" value="Display Items" style="html=1;verticalAlign=bottom;endArrow=block;edgeStyle=elbowEdgeStyle;elbow=vertical;curved=0;rounded=0;" edge="1" parent="ICZWEOEd3WsSAfwGdJ1y-1">
          <mxGeometry relative="1" as="geometry">
            <mxPoint x="75" y="320" as="sourcePoint" />
            <Array as="points">
              <mxPoint x="-30" y="320" />
            </Array>
            <mxPoint x="-115" y="320" as="targetPoint" />
          </mxGeometry>
        </mxCell>
      </root>
    </mxGraphModel>
  </diagram>
  <diagram name="uc-003" id="3SpAjeQ81zAeHNgPjThy">
    <mxGraphModel dx="1639" dy="1679" grid="1" gridSize="10" guides="1" tooltips="1" connect="1" arrows="1" fold="1" page="1" pageScale="1" pageWidth="850" pageHeight="1100" math="0" shadow="0">
      <root>
        <mxCell id="Lf9AIwvN5TBYD0l-HUt0-0" />
        <mxCell id="Lf9AIwvN5TBYD0l-HUt0-1" parent="Lf9AIwvN5TBYD0l-HUt0-0" />
        <mxCell id="Lf9AIwvN5TBYD0l-HUt0-2" value="Admin Panel" style="shape=umlLifeline;perimeter=lifelinePerimeter;whiteSpace=wrap;html=1;container=0;dropTarget=0;collapsible=0;recursiveResize=0;outlineConnect=0;portConstraint=eastwest;newEdgeStyle={&quot;edgeStyle&quot;:&quot;elbowEdgeStyle&quot;,&quot;elbow&quot;:&quot;vertical&quot;,&quot;curved&quot;:0,&quot;rounded&quot;:0};" vertex="1" parent="Lf9AIwvN5TBYD0l-HUt0-1">
          <mxGeometry x="30" y="40" width="100" height="320" as="geometry" />
        </mxCell>
        <mxCell id="Lf9AIwvN5TBYD0l-HUt0-3" value="" style="html=1;points=[];perimeter=orthogonalPerimeter;outlineConnect=0;targetShapes=umlLifeline;portConstraint=eastwest;newEdgeStyle={&quot;edgeStyle&quot;:&quot;elbowEdgeStyle&quot;,&quot;elbow&quot;:&quot;vertical&quot;,&quot;curved&quot;:0,&quot;rounded&quot;:0};" vertex="1" parent="Lf9AIwvN5TBYD0l-HUt0-2">
          <mxGeometry x="45" y="70" width="10" height="220" as="geometry" />
        </mxCell>
        <mxCell id="Lf9AIwvN5TBYD0l-HUt0-4" value="Backend" style="shape=umlLifeline;perimeter=lifelinePerimeter;whiteSpace=wrap;html=1;container=0;dropTarget=0;collapsible=0;recursiveResize=0;outlineConnect=0;portConstraint=eastwest;newEdgeStyle={&quot;edgeStyle&quot;:&quot;elbowEdgeStyle&quot;,&quot;elbow&quot;:&quot;vertical&quot;,&quot;curved&quot;:0,&quot;rounded&quot;:0};" vertex="1" parent="Lf9AIwvN5TBYD0l-HUt0-1">
          <mxGeometry x="230" y="40" width="100" height="320" as="geometry" />
        </mxCell>
        <mxCell id="Lf9AIwvN5TBYD0l-HUt0-5" value="" style="html=1;points=[];perimeter=orthogonalPerimeter;outlineConnect=0;targetShapes=umlLifeline;portConstraint=eastwest;newEdgeStyle={&quot;edgeStyle&quot;:&quot;elbowEdgeStyle&quot;,&quot;elbow&quot;:&quot;vertical&quot;,&quot;curved&quot;:0,&quot;rounded&quot;:0};" vertex="1" parent="Lf9AIwvN5TBYD0l-HUt0-4">
          <mxGeometry x="45" y="80" width="10" height="210" as="geometry" />
        </mxCell>
        <mxCell id="Lf9AIwvN5TBYD0l-HUt0-6" value="Sign In" style="html=1;verticalAlign=bottom;endArrow=block;edgeStyle=elbowEdgeStyle;elbow=horizontal;curved=0;rounded=0;" edge="1" parent="Lf9AIwvN5TBYD0l-HUt0-1" target="Lf9AIwvN5TBYD0l-HUt0-3">
          <mxGeometry relative="1" as="geometry">
            <mxPoint x="-120" y="120" as="sourcePoint" />
            <Array as="points">
              <mxPoint x="-35" y="120" />
            </Array>
            <mxPoint x="54.49999999999977" y="120" as="targetPoint" />
          </mxGeometry>
        </mxCell>
        <mxCell id="Lf9AIwvN5TBYD0l-HUt0-7" value="Librarian" style="shape=umlLifeline;perimeter=lifelinePerimeter;whiteSpace=wrap;html=1;container=0;dropTarget=0;collapsible=0;recursiveResize=0;outlineConnect=0;portConstraint=eastwest;newEdgeStyle={&quot;edgeStyle&quot;:&quot;elbowEdgeStyle&quot;,&quot;elbow&quot;:&quot;vertical&quot;,&quot;curved&quot;:0,&quot;rounded&quot;:0};" vertex="1" parent="Lf9AIwvN5TBYD0l-HUt0-1">
          <mxGeometry x="-170" y="40" width="100" height="320" as="geometry" />
        </mxCell>
        <mxCell id="Lf9AIwvN5TBYD0l-HUt0-8" value="" style="html=1;points=[];perimeter=orthogonalPerimeter;outlineConnect=0;targetShapes=umlLifeline;portConstraint=eastwest;newEdgeStyle={&quot;edgeStyle&quot;:&quot;elbowEdgeStyle&quot;,&quot;elbow&quot;:&quot;vertical&quot;,&quot;curved&quot;:0,&quot;rounded&quot;:0};" vertex="1" parent="Lf9AIwvN5TBYD0l-HUt0-7">
          <mxGeometry x="45" y="70" width="10" height="220" as="geometry" />
        </mxCell>
        <mxCell id="Lf9AIwvN5TBYD0l-HUt0-9" value="" style="shape=umlActor;verticalLabelPosition=bottom;verticalAlign=top;html=1;outlineConnect=0;" vertex="1" parent="Lf9AIwvN5TBYD0l-HUt0-1">
          <mxGeometry x="-135" y="-40" width="30" height="60" as="geometry" />
        </mxCell>
        <mxCell id="Lf9AIwvN5TBYD0l-HUt0-10" value="Enable Librarian Permissions" style="html=1;verticalAlign=bottom;endArrow=block;edgeStyle=elbowEdgeStyle;elbow=vertical;curved=0;rounded=0;" edge="1" parent="Lf9AIwvN5TBYD0l-HUt0-1" source="Lf9AIwvN5TBYD0l-HUt0-3" target="Lf9AIwvN5TBYD0l-HUt0-8">
          <mxGeometry relative="1" as="geometry">
            <mxPoint x="70" y="160" as="sourcePoint" />
            <Array as="points">
              <mxPoint x="-15" y="160" />
            </Array>
            <mxPoint x="-120" y="160" as="targetPoint" />
          </mxGeometry>
        </mxCell>
        <mxCell id="Lf9AIwvN5TBYD0l-HUt0-11" value="Select Item" style="html=1;verticalAlign=bottom;endArrow=block;edgeStyle=elbowEdgeStyle;elbow=vertical;curved=0;rounded=0;" edge="1" parent="Lf9AIwvN5TBYD0l-HUt0-1" source="Lf9AIwvN5TBYD0l-HUt0-8">
          <mxGeometry relative="1" as="geometry">
            <mxPoint x="-120" y="200" as="sourcePoint" />
            <Array as="points">
              <mxPoint x="-35" y="200" />
            </Array>
            <mxPoint x="75" y="200" as="targetPoint" />
          </mxGeometry>
        </mxCell>
        <mxCell id="Lf9AIwvN5TBYD0l-HUt0-14" value="Return Item View" style="html=1;verticalAlign=bottom;endArrow=block;edgeStyle=elbowEdgeStyle;elbow=vertical;curved=0;rounded=0;" edge="1" parent="Lf9AIwvN5TBYD0l-HUt0-1">
          <mxGeometry relative="1" as="geometry">
            <mxPoint x="75" y="240" as="sourcePoint" />
            <Array as="points">
              <mxPoint x="-30" y="240" />
            </Array>
            <mxPoint x="-115" y="240" as="targetPoint" />
          </mxGeometry>
        </mxCell>
        <mxCell id="fL5b6y7dk20w-tSRp73Q-1" value="Manipulate Stock" style="html=1;verticalAlign=bottom;endArrow=block;edgeStyle=elbowEdgeStyle;elbow=vertical;curved=0;rounded=0;" edge="1" parent="Lf9AIwvN5TBYD0l-HUt0-1">
          <mxGeometry relative="1" as="geometry">
            <mxPoint x="-115" y="279" as="sourcePoint" />
            <Array as="points">
              <mxPoint x="-35" y="279" />
            </Array>
            <mxPoint x="75" y="279" as="targetPoint" />
          </mxGeometry>
        </mxCell>
        <mxCell id="fL5b6y7dk20w-tSRp73Q-2" value="Commit Stock Change" style="html=1;verticalAlign=bottom;endArrow=block;edgeStyle=elbowEdgeStyle;elbow=vertical;curved=0;rounded=0;" edge="1" parent="Lf9AIwvN5TBYD0l-HUt0-1">
          <mxGeometry relative="1" as="geometry">
            <mxPoint x="85" y="321" as="sourcePoint" />
            <Array as="points">
              <mxPoint x="165" y="321" />
            </Array>
            <mxPoint x="275" y="321" as="targetPoint" />
          </mxGeometry>
        </mxCell>
      </root>
    </mxGraphModel>
  </diagram>
  <diagram name="uc-004" id="ntnUczuv9AvRIUK12axn">
    <mxGraphModel dx="1639" dy="1679" grid="1" gridSize="10" guides="1" tooltips="1" connect="1" arrows="1" fold="1" page="1" pageScale="1" pageWidth="850" pageHeight="1100" math="0" shadow="0">
      <root>
        <mxCell id="hp7-on70KT5pmhkmWxsX-0" />
        <mxCell id="hp7-on70KT5pmhkmWxsX-1" parent="hp7-on70KT5pmhkmWxsX-0" />
        <mxCell id="hp7-on70KT5pmhkmWxsX-2" value="Admin Panel" style="shape=umlLifeline;perimeter=lifelinePerimeter;whiteSpace=wrap;html=1;container=0;dropTarget=0;collapsible=0;recursiveResize=0;outlineConnect=0;portConstraint=eastwest;newEdgeStyle={&quot;edgeStyle&quot;:&quot;elbowEdgeStyle&quot;,&quot;elbow&quot;:&quot;vertical&quot;,&quot;curved&quot;:0,&quot;rounded&quot;:0};" vertex="1" parent="hp7-on70KT5pmhkmWxsX-1">
          <mxGeometry x="30" y="40" width="100" height="320" as="geometry" />
        </mxCell>
        <mxCell id="hp7-on70KT5pmhkmWxsX-3" value="" style="html=1;points=[];perimeter=orthogonalPerimeter;outlineConnect=0;targetShapes=umlLifeline;portConstraint=eastwest;newEdgeStyle={&quot;edgeStyle&quot;:&quot;elbowEdgeStyle&quot;,&quot;elbow&quot;:&quot;vertical&quot;,&quot;curved&quot;:0,&quot;rounded&quot;:0};" vertex="1" parent="hp7-on70KT5pmhkmWxsX-2">
          <mxGeometry x="45" y="70" width="10" height="220" as="geometry" />
        </mxCell>
        <mxCell id="hp7-on70KT5pmhkmWxsX-4" value="Backend" style="shape=umlLifeline;perimeter=lifelinePerimeter;whiteSpace=wrap;html=1;container=0;dropTarget=0;collapsible=0;recursiveResize=0;outlineConnect=0;portConstraint=eastwest;newEdgeStyle={&quot;edgeStyle&quot;:&quot;elbowEdgeStyle&quot;,&quot;elbow&quot;:&quot;vertical&quot;,&quot;curved&quot;:0,&quot;rounded&quot;:0};" vertex="1" parent="hp7-on70KT5pmhkmWxsX-1">
          <mxGeometry x="230" y="40" width="100" height="320" as="geometry" />
        </mxCell>
        <mxCell id="hp7-on70KT5pmhkmWxsX-5" value="" style="html=1;points=[];perimeter=orthogonalPerimeter;outlineConnect=0;targetShapes=umlLifeline;portConstraint=eastwest;newEdgeStyle={&quot;edgeStyle&quot;:&quot;elbowEdgeStyle&quot;,&quot;elbow&quot;:&quot;vertical&quot;,&quot;curved&quot;:0,&quot;rounded&quot;:0};" vertex="1" parent="hp7-on70KT5pmhkmWxsX-4">
          <mxGeometry x="45" y="80" width="10" height="210" as="geometry" />
        </mxCell>
        <mxCell id="hp7-on70KT5pmhkmWxsX-6" value="Sign In" style="html=1;verticalAlign=bottom;endArrow=block;edgeStyle=elbowEdgeStyle;elbow=horizontal;curved=0;rounded=0;" edge="1" parent="hp7-on70KT5pmhkmWxsX-1" target="hp7-on70KT5pmhkmWxsX-3">
          <mxGeometry relative="1" as="geometry">
            <mxPoint x="-120" y="120" as="sourcePoint" />
            <Array as="points">
              <mxPoint x="-35" y="120" />
            </Array>
            <mxPoint x="54.49999999999977" y="120" as="targetPoint" />
          </mxGeometry>
        </mxCell>
        <mxCell id="hp7-on70KT5pmhkmWxsX-7" value="Branch Manager" style="shape=umlLifeline;perimeter=lifelinePerimeter;whiteSpace=wrap;html=1;container=0;dropTarget=0;collapsible=0;recursiveResize=0;outlineConnect=0;portConstraint=eastwest;newEdgeStyle={&quot;edgeStyle&quot;:&quot;elbowEdgeStyle&quot;,&quot;elbow&quot;:&quot;vertical&quot;,&quot;curved&quot;:0,&quot;rounded&quot;:0};" vertex="1" parent="hp7-on70KT5pmhkmWxsX-1">
          <mxGeometry x="-170" y="40" width="100" height="320" as="geometry" />
        </mxCell>
        <mxCell id="hp7-on70KT5pmhkmWxsX-8" value="" style="html=1;points=[];perimeter=orthogonalPerimeter;outlineConnect=0;targetShapes=umlLifeline;portConstraint=eastwest;newEdgeStyle={&quot;edgeStyle&quot;:&quot;elbowEdgeStyle&quot;,&quot;elbow&quot;:&quot;vertical&quot;,&quot;curved&quot;:0,&quot;rounded&quot;:0};" vertex="1" parent="hp7-on70KT5pmhkmWxsX-7">
          <mxGeometry x="45" y="70" width="10" height="220" as="geometry" />
        </mxCell>
        <mxCell id="hp7-on70KT5pmhkmWxsX-9" value="" style="shape=umlActor;verticalLabelPosition=bottom;verticalAlign=top;html=1;outlineConnect=0;" vertex="1" parent="hp7-on70KT5pmhkmWxsX-1">
          <mxGeometry x="-135" y="-40" width="30" height="60" as="geometry" />
        </mxCell>
        <mxCell id="hp7-on70KT5pmhkmWxsX-10" value="Enable Manager Permissions" style="html=1;verticalAlign=bottom;endArrow=block;edgeStyle=elbowEdgeStyle;elbow=vertical;curved=0;rounded=0;" edge="1" parent="hp7-on70KT5pmhkmWxsX-1" source="hp7-on70KT5pmhkmWxsX-3" target="hp7-on70KT5pmhkmWxsX-8">
          <mxGeometry relative="1" as="geometry">
            <mxPoint x="70" y="160" as="sourcePoint" />
            <Array as="points">
              <mxPoint x="-15" y="160" />
            </Array>
            <mxPoint x="-120" y="160" as="targetPoint" />
          </mxGeometry>
        </mxCell>
        <mxCell id="hp7-on70KT5pmhkmWxsX-11" value="Create Item" style="html=1;verticalAlign=bottom;endArrow=block;edgeStyle=elbowEdgeStyle;elbow=vertical;curved=0;rounded=0;" edge="1" parent="hp7-on70KT5pmhkmWxsX-1" source="hp7-on70KT5pmhkmWxsX-8">
          <mxGeometry relative="1" as="geometry">
            <mxPoint x="-120" y="200" as="sourcePoint" />
            <Array as="points">
              <mxPoint x="-35" y="200" />
            </Array>
            <mxPoint x="75" y="200" as="targetPoint" />
          </mxGeometry>
        </mxCell>
        <mxCell id="hp7-on70KT5pmhkmWxsX-12" value="Return Success" style="html=1;verticalAlign=bottom;endArrow=block;edgeStyle=elbowEdgeStyle;elbow=vertical;curved=0;rounded=0;" edge="1" parent="hp7-on70KT5pmhkmWxsX-1">
          <mxGeometry relative="1" as="geometry">
            <mxPoint x="275" y="280" as="sourcePoint" />
            <Array as="points">
              <mxPoint x="170" y="280" />
            </Array>
            <mxPoint x="85" y="280" as="targetPoint" />
          </mxGeometry>
        </mxCell>
        <mxCell id="_iWYxGwy3r9gYh8NkcIm-0" value="Commit Item to Database" style="html=1;verticalAlign=bottom;endArrow=block;edgeStyle=elbowEdgeStyle;elbow=vertical;curved=0;rounded=0;" edge="1" parent="hp7-on70KT5pmhkmWxsX-1">
          <mxGeometry relative="1" as="geometry">
            <mxPoint x="85" y="240" as="sourcePoint" />
            <Array as="points">
              <mxPoint x="165" y="240" />
            </Array>
            <mxPoint x="275" y="240" as="targetPoint" />
          </mxGeometry>
        </mxCell>
        <mxCell id="_iWYxGwy3r9gYh8NkcIm-2" value="Display new Item" style="html=1;verticalAlign=bottom;endArrow=block;edgeStyle=elbowEdgeStyle;elbow=vertical;curved=0;rounded=0;" edge="1" parent="hp7-on70KT5pmhkmWxsX-1">
          <mxGeometry relative="1" as="geometry">
            <mxPoint x="74" y="320" as="sourcePoint" />
            <Array as="points">
              <mxPoint x="-16" y="320" />
            </Array>
            <mxPoint x="-116" y="320" as="targetPoint" />
          </mxGeometry>
        </mxCell>
      </root>
    </mxGraphModel>
  </diagram>
</mxfile>
